<svg width="74" height="80" viewBox="0 0 74 80" fill="none" xmlns="http://www.w3.org/2000/svg">
<circle cx="37" cy="43" r="37" fill="black"/>
<path d="M47.6308 51.498H45.4648V63.772L39.9168 64.228V35.728L46.6808 35.5C49.9488 35.5 52.5075 36.1587 54.3568 37.476C56.2062 38.768 57.1308 40.7567 57.1308 43.442C57.1308 45.2153 56.7762 46.672 56.0668 47.812C55.3828 48.952 54.3822 49.902 53.0648 50.662L55.6108 56.856L58.1948 63.012L52.7228 64.494L47.6308 51.498ZM47.3648 47.394C48.6822 47.394 49.7082 47.128 50.4428 46.596C51.2028 46.0387 51.5828 45 51.5828 43.48C51.5828 41.124 50.4175 39.946 48.0868 39.946H45.4648V47.394H47.3648Z" fill="white"/>
<path d="M27.0531 50.532C24.7478 50.532 22.7971 49.8987 21.2011 48.632C19.6305 47.34 18.4778 45.6173 17.7431 43.464L22.4551 41.26L22.9111 42.02C23.6458 43.2867 24.3425 44.2747 25.0011 44.984C25.6851 45.6933 26.5338 46.048 27.5471 46.048C28.2058 46.048 28.7885 45.7313 29.2951 45.098C29.8271 44.4647 30.0931 43.768 30.0931 43.008C30.0931 42.2987 29.9158 41.6527 29.5611 41.07C29.2065 40.4873 28.7505 40.0187 28.1931 39.664L23.2151 36.7C21.7711 35.8893 20.6185 34.8633 19.7571 33.622C18.8958 32.3807 18.4651 30.9873 18.4651 29.442C18.4651 27.7953 18.8451 26.326 19.6051 25.034C20.3905 23.742 21.4418 22.7413 22.7591 22.032C24.1018 21.3227 25.6091 20.968 27.2811 20.968C29.2318 20.968 30.8911 21.4493 32.2591 22.412C33.6271 23.3747 34.6405 24.806 35.2991 26.706L30.5871 28.834C30.4858 28.6313 30.2705 28.1753 29.9411 27.466C29.6118 26.7567 29.2065 26.25 28.7251 25.946C28.2691 25.6167 27.6991 25.452 27.0151 25.452C26.1791 25.452 25.5331 25.718 25.0771 26.25C24.6465 26.782 24.4311 27.466 24.4311 28.302C24.4311 28.91 24.5958 29.4673 24.9251 29.974C25.2798 30.4553 25.6978 30.8353 26.1791 31.114L30.7771 33.812C34.1718 35.7373 35.9578 38.2707 36.1351 41.412C36.1351 43.2107 35.7298 44.8067 34.9191 46.2C34.1338 47.568 33.0445 48.632 31.6511 49.392C30.2831 50.152 28.7505 50.532 27.0531 50.532Z" fill="#C76CFF"/>
</svg>
