<svg width="72" height="79" viewBox="0 0 72 79" fill="none" xmlns="http://www.w3.org/2000/svg">
<circle cx="36" cy="39" r="36" fill="black"/>
<path d="M45.6503 47.156H43.5983V58.784L38.3423 59.216V32.216L44.7503 32C47.8463 32 50.2703 32.624 52.0223 33.872C53.7743 35.096 54.6503 36.98 54.6503 39.524C54.6503 41.204 54.3143 42.584 53.6423 43.664C52.9943 44.744 52.0463 45.644 50.7983 46.364L53.2103 52.232L55.6583 58.064L50.4743 59.468L45.6503 47.156ZM45.3983 43.268C46.6463 43.268 47.6183 43.016 48.3143 42.512C49.0343 41.984 49.3943 41 49.3943 39.56C49.3943 37.328 48.2903 36.212 46.0823 36.212H43.5983V43.268H45.3983Z" fill="white"/>
<path d="M25.0503 45.504C22.8663 45.504 21.0183 44.904 19.5063 43.704C18.0183 42.48 16.9263 40.848 16.2303 38.808L20.6943 36.72L21.1263 37.44C21.8223 38.64 22.4823 39.576 23.1063 40.248C23.7543 40.92 24.5583 41.256 25.5183 41.256C26.1423 41.256 26.6943 40.956 27.1743 40.356C27.6783 39.756 27.9303 39.096 27.9303 38.376C27.9303 37.704 27.7623 37.092 27.4263 36.54C27.0903 35.988 26.6583 35.544 26.1303 35.208L21.4143 32.4C20.0463 31.632 18.9543 30.66 18.1383 29.484C17.3223 28.308 16.9143 26.988 16.9143 25.524C16.9143 23.964 17.2743 22.572 17.9943 21.348C18.7383 20.124 19.7343 19.176 20.9823 18.504C22.2543 17.832 23.6823 17.496 25.2663 17.496C27.1143 17.496 28.6863 17.952 29.9823 18.864C31.2783 19.776 32.2383 21.132 32.8623 22.932L28.3983 24.948C28.3023 24.756 28.0983 24.324 27.7863 23.652C27.4743 22.98 27.0903 22.5 26.6343 22.212C26.2023 21.9 25.6623 21.744 25.0143 21.744C24.2223 21.744 23.6103 21.996 23.1783 22.5C22.7703 23.004 22.5663 23.652 22.5663 24.444C22.5663 25.02 22.7223 25.548 23.0343 26.028C23.3703 26.484 23.7663 26.844 24.2223 27.108L28.5783 29.664C31.7943 31.488 33.4863 33.888 33.6543 36.864C33.6543 38.568 33.2703 40.08 32.5023 41.4C31.7583 42.696 30.7263 43.704 29.4063 44.424C28.1103 45.144 26.6583 45.504 25.0503 45.504Z" fill="#C76CFF"/>
</svg>
